<svg aria-hidden="true" style="position:absolute;width:0;height:0;overflow:hidden" xmlns="http://www.w3.org/2000/svg">
  <defs>
    <symbol id="icon-cursor" viewBox="0 0 32 32">
      <path d="M11 3V2a.997.997 0 0 1 1-1 .997.997 0 0 1 1 1v1a.997.997 0 0 1-1 1 .997.997 0 0 1-1-1zM2 13h1a.997.997 0 0 0 1-1 .997.997 0 0 0-1-1H2a.997.997 0 0 0-1 1 .997.997 0 0 0 1 1zm13.553-8.105a.985.985 0 0 0 .764.054 1.002 1.002 0 0 0 .578-.502l1-2a.999.999 0 0 0-1.788-.895l-1 2a1.005 1.005 0 0 0-.055.763 1.012 1.012 0 0 0 .501.578zm-12 10.211-2 1a1 1 0 1 0 .895 1.788l2-1a1.01 1.01 0 0 0 .501-.578.997.997 0 0 0-1.019-1.313.985.985 0 0 0-.376.103zM27.414 23A2.005 2.005 0 0 1 28 24.414a2.004 2.004 0 0 1-.586 1.414l-1.585 1.585a2.005 2.005 0 0 1-1.414.586 2.004 2.004 0 0 1-1.414-.586l-6.413-6.414-2.213 5.761c0 .013-.01.026-.016.04a1.98 1.98 0 0 1-1.825 1.199h-.099a1.976 1.976 0 0 1-1.801-1.375L4.1 6.614a1.996 1.996 0 0 1 .491-2.024 2.004 2.004 0 0 1 2.024-.491l20.01 6.534a2.004 2.004 0 0 1 1.364 1.802 1.998 1.998 0 0 1-1.187 1.923l-.04.016-5.761 2.211 6.414 6.414zM26 24.414 19.586 18a1.996 1.996 0 0 1-.149-2.664c.204-.255.467-.456.766-.586l.04-.017 5.744-2.205L6.001 6.001l6.525 19.983 2.206-5.75c0-.014.01-.027.016-.041a1.994 1.994 0 0 1 1.837-1.202c.53.001 1.038.211 1.413.586l6.417 6.425 1.586-1.586z"/>
    </symbol>
    <symbol id="icon-facebook" viewBox="0 0 32 32">
      <path d="M22.667 5.504v3.587H20.26c-1.909 0-2.268.805-2.268 1.952v2.586h4.537l-.609 4.026h-3.928V28h-4.73V17.655H9.334v-4.026h3.928v-2.977c0-3.44 2.407-5.319 5.892-5.319 1.66 0 3.098.098 3.513.171z"/>
    </symbol>
    <symbol id="icon-Instagram" viewBox="0 0 32 32">
      <path d="M16.669 10.855c-3.216 0-5.81 2.595-5.81 5.811s2.594 5.811 5.81 5.811c3.216 0 5.81-2.595 5.81-5.811s-2.594-5.811-5.81-5.811zm0 9.59c-2.078 0-3.777-1.694-3.777-3.778s1.694-3.778 3.777-3.778 3.777 1.694 3.777 3.778-1.699 3.778-3.777 3.778zm7.403-9.828c0 .754-.607 1.355-1.355 1.355a1.355 1.355 0 1 1 1.355-1.355zm3.848 1.376c-.086-1.816-.501-3.424-1.831-4.749-1.325-1.325-2.933-1.74-4.748-1.831-1.871-.106-7.479-.106-9.35 0-1.81.086-3.418.501-4.748 1.826s-1.74 2.934-1.831 4.749c-.106 1.871-.106 7.481 0 9.352.086 1.816.501 3.424 1.831 4.749s2.933 1.74 4.748 1.831c1.871.106 7.479.106 9.35 0 1.815-.086 3.423-.501 4.748-1.831 1.325-1.325 1.739-2.934 1.831-4.749.106-1.871.106-7.475 0-9.347zm-2.417 11.355a3.827 3.827 0 0 1-2.154 2.155c-1.492.592-5.031.455-6.68.455s-5.193.132-6.68-.455a3.824 3.824 0 0 1-2.154-2.155c-.592-1.492-.455-5.033-.455-6.681s-.131-5.194.455-6.681a3.827 3.827 0 0 1 2.154-2.155c1.492-.592 5.031-.455 6.68-.455s5.193-.131 6.68.455a3.824 3.824 0 0 1 2.154 2.155c.592 1.492.455 5.033.455 6.681s.137 5.194-.455 6.681z"/>
    </symbol>
    <symbol id="icon-linkedIn" viewBox="0 0 32 32">
      <path d="M10.201 27.667H5.847V13.646h4.354v14.021zm-2.18-15.933c-1.392 0-2.521-1.153-2.521-2.546a2.52 2.52 0 1 1 5.042 0c0 1.392-1.13 2.546-2.521 2.546zm18.474 15.933h-4.344v-6.825c0-1.627-.033-3.712-2.263-3.712-2.263 0-2.611 1.767-2.611 3.595v6.942h-4.349V13.646h4.175v1.913h.061c.581-1.102 2.001-2.264 4.119-2.264 4.406 0 5.216 2.902 5.216 6.671v7.702h-.004z"/>
    </symbol>
    <symbol id="icon-send" viewBox="0 0 32 32">
      <path d="m14.088 18.908 5.851 9.493c.256.416.656.411.818.389s.55-.122.691-.594l7.317-24.712a.834.834 0 0 0-.213-.84.818.818 0 0 0-.819-.211L3.003 9.675a.818.818 0 0 0-.594.693.825.825 0 0 0 .386.834l9.602 6.005 8.483-8.573a1.201 1.201 0 0 1 1.708 1.688l-8.499 8.587zM20.632 31.2a3.195 3.195 0 0 1-2.736-1.539l-6.203-10.066-10.17-6.36a3.206 3.206 0 0 1-1.491-3.194 3.202 3.202 0 0 1 2.296-2.669L27.058.13a3.23 3.23 0 0 1 3.195.818 3.25 3.25 0 0 1 .811 3.218l-7.317 24.71a3.195 3.195 0 0 1-2.672 2.293c-.15.019-.296.03-.443.03z"/>
    </symbol>
    <symbol id="icon-twitter" viewBox="0 0 32 32">
      <path d="m18.823 14.931 8.438-9.598h-2l-7.327 8.334-5.852-8.334h-6.75l8.849 12.602L5.332 28h2l7.737-8.801L21.249 28h6.75l-9.177-13.069zm-2.738 3.115L8.054 6.806h3.072l14.137 19.788h-3.071l-6.107-8.548z"/>
    </symbol>
  </defs>
</svg>
